#!OML:ASF F:\VICON\USERDATA\INSTALL\rory3\rory3.ASF
:FULLY-SPECIFIED
:DEGREES
2720
root 2.82106 19.2227 5.55369 1.07622 10.3037 -7.23788
lowerback 4.80392 3.84989 -3.50138
upperback 0.735117 4.83184 -6.56085
thorax -1.64829 2.43018 -5.13447
lowerneck -9.68788 -6.67867 -11.1651
upperneck 1.97545 -8.17635 11.1054
head 3.08985 -3.79271 4.69309
rclavicle -4.73108e-014 -1.59028e-014
rhumerus 62.5977 40.1601 8.04542
rradius 85.4368
rwrist 49.371
rhand -56.2688 394.561
rfingers 7.12502
rthumb -28.5931 -713.272
lclavicle -4.73108e-014 -1.59028e-014
lhumerus -28.5013 13.7969 63.4764
lradius 30.0459
lwrist 1.81053
lhand -27.5434 29.7864
lfingers 7.12502
lthumb -0.944954 59.7641
rfemur -8.32372 18.9442 11.7052
rtibia 16.1221
rfoot 1.47338 -39.5355
rtoes 14.6758
lfemur -4.09421 -16.0845 -11.5242
ltibia 13.1512
lfoot -9.6195 13.2517
ltoes -7.0274
2721
root 2.83829 19.2232 5.55495 0.982046 10.1716 -7.37685
lowerback 4.82612 3.81854 -3.58928
upperback 0.648661 4.77608 -6.57196
thorax -1.76007 2.40176 -5.10038
lowerneck -9.61457 -6.62099 -11.3135
upperneck 2.04558 -8.08508 10.9885
head 3.0888 -3.75493 4.68918
rclavicle 3.22031e-014 -9.54166e-015
rhumerus 61.3055 39.6866 7.274
rradius 85.7757
rwrist 48.5746
rhand -56.6558 396.454
rfingers 7.12502
rthumb -28.9627 -711.316
lclavicle 3.22031e-014 -9.54166e-015
lhumerus -28.5979 13.9037 63.2899
lradius 29.7634
lwrist 2.23806
lhand -27.4026 29.4047
lfingers 7.12502
lthumb -0.808905 59.3829
rfemur -8.2574 18.8757 11.7913
rtibia 16.0179
rfoot 2.1259 -39.3004
rtoes 14.1209
lfemur -4.04868 -16.0784 -11.4737
ltibia 13.332
lfoot -9.86403 13.3479
ltoes -6.09436
2722
root 2.85353 19.2241 5.5601 0.843021 10.053 -7.5988
lowerback 4.75054 3.73091 -3.55266
upperback 0.635892 4.66542 -6.62227
thorax -1.73059 2.3463 -5.16178
lowerneck -9.64582 -6.50929 -11.3338
upperneck 2.138 -7.93113 10.9268
head 3.10216 -3.67993 4.68403
rclavicle -3.49861e-014 3.18055e-015
rhumerus 60.1025 38.9567 6.29363
rradius 85.9876
rwrist 47.5763
rhand -57.1997 391.454
rfingers 7.12502
rthumb -29.4822 -716.226
lclavicle -3.49861e-014 3.18055e-015
lhumerus -28.809 13.9357 62.9347
lradius 29.5617
lwrist 2.81404
lhand -27.8092 29.0716
lfingers 7.12502
lthumb -1.20165 59.048
rfemur -8.14673 18.9364 11.999
rtibia 15.9126
rfoot 2.71288 -39.166
rtoes 13.4961
lfemur -3.9514 -16.1087 -11.3317
ltibia 13.4972
lfoot -10.0142 13.4672
ltoes -6.31458
2723
root 2.87027 19.2227 5.56917 0.639476 9.95386 -7.82238
lowerback 4.70931 3.66082 -3.45589
upperback 0.614873 4.57789 -6.6919
thorax -1.72138 2.3022 -5.28189
lowerneck -9.70116 -6.39204 -11.3236
upperneck 2.35054 -7.78002 10.876
head 3.15514 -3.60483 4.67535
rclavicle 5.1684e-014 -9.54166e-015
rhumerus 58.8336 38.1928 5.32865
rradius 86.0679
rwrist 46.5594
rhand -57.5849 387.06
rfingers 7.12502
rthumb -29.8498 -720.555
lclavicle 5.1684e-014 -9.54166e-015
lhumerus -28.8954 14.2269 62.5328
lradius 29.1359
lwrist 2.87104
lhand -28.0032 28.9131
lfingers 7.12502
lthumb -1.389 58.8883
rfemur -7.94922 18.9883 12.2329
rtibia 15.8586
rfoot 2.89157 -39.0876
rtoes 13.4855
lfemur -3.72677 -16.0702 -11.2075
ltibia 13.5761
lfoot -10.0135 13.4847
ltoes -7.13464
2724
root 2.88857 19.2211 5.57877 0.498926 9.85904 -7.93276
lowerback 4.59896 3.62315 -3.48549
upperback 0.551217 4.5289 -6.76572
thorax -1.72505 2.27767 -5.33511
lowerneck -9.56442 -6.26488 -11.4175
upperneck 2.52187 -7.62286 10.8695
head 3.17007 -3.53227 4.7028
rclavicle 6.36111e-015 7.31528e-014
rhumerus 57.526 37.4234 4.43659
rradius 86.0151
rwrist 45.6435
rhand -58.0004 386.82
rfingers 7.12502
rthumb -30.2462 -720.723
lclavicle 6.36111e-015 7.31528e-014
lhumerus -28.7783 14.9611 62.131
lradius 28.3774
lwrist 2.21987
lhand -27.7666 28.8142
lfingers 7.12502
lthumb -1.16049 58.7908
rfemur -7.80652 18.9453 12.3212
rtibia 15.8149
rfoot 3.18148 -39.0536
rtoes 13.5686
lfemur -3.54895 -16.1167 -11.1989
ltibia 13.6324
lfoot -10.0272 13.5387
ltoes -8.33777
2725
root 2.9081 19.2229 5.58909 0.42764 9.77524 -7.87939
lowerback 4.38956 3.55722 -3.69027
upperback 0.567999 4.4476 -6.86153
thorax -1.60364 2.23838 -5.30052
lowerneck -9.73383 -6.1751 -11.4059
upperneck 2.81755 -7.49469 10.7164
head 3.26431 -3.46886 4.65689
rclavicle 3.61788e-014 3.18055e-014
rhumerus 56.4133 36.3636 3.71741
rradius 85.8985
rwrist 44.633
rhand -58.3059 385.844
rfingers 7.12502
rthumb -30.5376 -721.644
lclavicle 3.61788e-014 3.18055e-014
lhumerus -28.7803 15.3527 61.8253
lradius 27.964
lwrist 2.05743
lhand -27.7301 29.0364
lfingers 7.12502
lthumb -1.12521 59.0131
rfemur -7.70838 18.9149 12.2224
rtibia 15.8082
rfoot 3.29914 -39.0432
rtoes 13.7076
lfemur -3.39121 -16.1211 -11.3749
ltibia 13.6586
lfoot -10.1124 13.604
ltoes -8.8533
2726
root 2.92383 19.2247 5.59757 0.308471 9.65936 -8.0027
lowerback 4.26811 3.50909 -3.76623
upperback 0.576143 4.38977 -6.89057
thorax -1.53429 2.20976 -5.27609
lowerneck -9.99324 -6.10139 -11.1558
upperneck 3.12241 -7.38599 10.2491
head 3.35572 -3.42165 4.47125
rclavicle 1.19271e-014 -5.725e-014
rhumerus 55.3441 35.2115 3.08772
rradius 85.7097
rwrist 43.6635
rhand -58.5289 384.612
rfingers 7.12502
rthumb -30.7503 -722.837
lclavicle 1.19271e-014 -5.725e-014
lhumerus -28.9954 15.5992 61.4508
lradius 27.7406
lwrist 1.80778
lhand -27.4995 29.1417
lfingers 7.12502
lthumb -0.902507 59.1195
rfemur -7.60898 19.0424 12.3549
rtibia 15.836
rfoot 3.34726 -39.074
rtoes 13.5909
lfemur -3.20421 -16.0916 -11.3405
ltibia 13.6494
lfoot -10.2108 13.6764
ltoes -8.67572
2727
root 2.93939 19.2248 5.6028 0.180565 9.57755 -8.17905
lowerback 4.20542 3.38785 -3.81237
upperback 0.571209 4.23091 -6.83041
thorax -1.52232 2.13001 -5.17401
lowerneck -10.3335 -5.92352 -11.1281
upperneck 3.52344 -7.11035 9.87073
head 3.48461 -3.29039 4.3604
rclavicle -3.53837e-014 -4.45278e-014
rhumerus 54.317 33.8906 2.4463
rradius 85.1866
rwrist 43.5031
rhand -59.0238 384.552
rfingers 7.12502
rthumb -31.222 -722.807
lclavicle -3.53837e-014 -4.45278e-014
lhumerus -29.2336 16.4156 60.9817
lradius 27.2776
lwrist 0.992906
lhand -27.417 28.9502
lfingers 7.12502
lthumb -0.822799 58.9284
rfemur -7.52815 19.0235 12.5424
rtibia 15.864
rfoot 3.4798 -39.0193
rtoes 13.4199
lfemur -3.05035 -16.0701 -11.2447
ltibia 13.6534
lfoot -10.2203 13.7583
ltoes -8.87271
2728
root 2.95893 19.2224 5.60852 0.0507516 9.48841 -8.20652
lowerback 4.14895 3.20959 -4.01055
upperback 0.623163 3.99334 -6.73457
thorax -1.47188 2.0114 -4.94343
lowerneck -10.9489 -5.71985 -11.3857
upperneck 4.14234 -6.75282 9.65136
head 3.73289 -3.11139 4.34552
rclavicle -1.39149e-014 0
rhumerus 53.6641 32.3941 2.0859
rradius 84.6091
rwrist 43.5313
rhand -59.4544 384.345
rfingers 7.12502
rthumb -31.6323 -722.934
lclavicle -1.39149e-014 0
lhumerus -29.3905 17.3212 60.7003
lradius 26.7729
lwrist 0.567731
lhand -27.6412 29.1035
lfingers 7.12502
lthumb -1.03934 59.0808
rfemur -7.41021 18.872 12.5586
rtibia 15.8727
rfoot 3.25799 -39.0375
rtoes 14.0475
lfemur -2.86907 -16.1628 -11.3509
ltibia 13.7018
lfoot -10.2931 13.9277
ltoes -8.78799
2729
root 2.98144 19.2191 5.6164 -0.0895363 9.37747 -8.23321
lowerback 4.10438 3.13384 -4.08888
upperback 0.498506 3.88183 -6.76181
thorax -1.58561 1.95567 -4.92508
lowerneck -10.9317 -5.51681 -11.354
upperneck 4.67883 -6.49149 9.35711
head 3.85262 -2.99728 4.26741
rclavicle 2.18663e-014 -7.63333e-014
rhumerus 53.2006 31.3014 1.92968
rradius 84.1965
rwrist 42.8324
rhand -59.7051 383.329
rfingers 7.12502
rthumb -31.871 -723.903
lclavicle 2.18663e-014 -7.63333e-014
lhumerus -29.6812 17.4202 60.4587
lradius 26.461
lwrist 0.699966
lhand -27.6291 29.5499
lfingers 7.12502
lthumb -1.02768 59.5272
rfemur -7.2759 18.7404 12.5876
rtibia 15.8698
rfoot 2.99214 -39.1701
rtoes 14.7844
lfemur -2.65317 -16.2628 -11.4853
ltibia 13.7662
lfoot -10.5016 14.13
ltoes -7.88963
2730
root 3.0038 19.2194 5.62509 -0.234332 9.29489 -8.18026
lowerback 4.02594 3.12414 -4.18518
upperback 0.219127 3.84671 -6.88172
thorax -1.83128 1.93843 -5.00334
lowerneck -10.1014 -5.25671 -11.3468
upperneck 4.97682 -6.24039 9.25228
head 3.77768 -2.90065 4.26849
rclavicle 3.77691e-014 2.54444e-014
rhumerus 52.4631 30.4852 1.4927
rradius 83.5348
rwrist 42.4786
rhand -60.2259 383.219
rfingers 7.12502
rthumb -32.3669 -723.913
lclavicle 3.77691e-014 2.54444e-014
lhumerus -30.1968 17.1012 60.1424
lradius 26.3136
lwrist 0.936893
lhand -27.2821 29.9161
lfingers 7.12502
lthumb -0.692536 59.8947
rfemur -7.08367 18.4885 12.574
rtibia 15.8329
rfoot 3.36833 -39.1329
rtoes 14.3498
lfemur -2.42935 -16.1871 -11.7084
ltibia 13.8656
lfoot -10.7549 14.1684
ltoes -6.36802
2731
root 3.02279 19.2197 5.63582 -0.368433 9.23383 -8.28092
lowerback 3.84727 3.09432 -4.16004
upperback 0.160896 3.81823 -6.95604
thorax -1.78621 1.92399 -5.08499
lowerneck -10.0079 -5.07526 -11.2799
upperneck 5.4307 -6.03354 9.17761
head 3.87376 -2.80487 4.25076
rclavicle -5.24792e-014 5.725e-014
rhumerus 51.4946 29.1395 0.809126
rradius 82.6119
rwrist 42.7111
rhand -60.0484 385.171
rfingers 7.12502
rthumb -32.198 -721.995
lclavicle -5.24792e-014 5.725e-014
lhumerus -30.1903 17.259 59.8672
lradius 25.9155
lwrist 0.812885
lhand -27.0038 29.6145
lfingers 7.12502
lthumb -0.423737 59.5939
rfemur -6.91614 18.4203 12.7419
rtibia 15.7592
rfoot 3.55083 -39.4352
rtoes 14.4328
lfemur -2.28738 -16.139 -11.7254
ltibia 14.0248
lfoot -11.0452 14.1701
ltoes -5.10842
2732
root 3.0376 19.219 5.64486 -0.535283 9.12753 -8.49476
lowerback 3.70718 3.11508 -4.09356
upperback 0.0980825 3.85539 -6.99362
thorax -1.76358 1.94194 -5.15717
lowerneck -9.97438 -4.95397 -11.0619
upperneck 5.96529 -5.91277 8.96282
head 4.00426 -2.75353 4.15656
rclavicle 8.50798e-014 -1.04958e-013
rhumerus 50.4872 27.7483 0.223038
rradius 81.6237
rwrist 42.9088
rhand -59.2514 386.317
rfingers 7.12502
rthumb -31.4389 -721
lclavicle 8.50798e-014 -1.04958e-013
lhumerus -30.0927 17.3549 59.6188
lradius 25.4035
lwrist 0.496488
lhand -27.0277 29.0544
lfingers 7.12502
lthumb -0.44686 59.0337
rfemur -6.75447 18.6129 13.059
rtibia 15.6851
rfoot 3.06778 -40.1046
rtoes 15.1302
lfemur -2.17752 -16.0389 -11.5875
ltibia 14.2213
lfoot -11.1749 14.1581
ltoes -4.90273
2733
root 3.05452 19.2169 5.65265 -0.734035 9.02211 -8.68622
lowerback 3.64893 3.1442 -3.984
upperback 0.0159831 3.89664 -7.04194
thorax -1.80287 1.96157 -5.27142
lowerneck -9.78964 -4.83841 -10.7741
upperneck 6.40515 -5.81062 8.66637
head 4.07915 -2.71676 4.02705
rclavicle -2.06736e-014 8.90555e-014
rhumerus 49.5739 26.3905 -0.327255
rradius 80.4205
rwrist 43.2094
rhand -59.3795 385.922
rfingers 7.12502
rthumb -31.5609 -721.371
lclavicle -2.06736e-014 8.90555e-014
lhumerus -30.0282 17.1292 59.4725
lradius 24.9699
lwrist 0.606282
lhand -27.3827 29.1191
lfingers 7.12502
lthumb -0.789706 59.0974
rfemur -6.51832 18.6767 13.3797
rtibia 15.5869
rfoot 2.55259 -40.6937
rtoes 15.5863
lfemur -2.04632 -15.8956 -11.4923
ltibia 14.4535
lfoot -11.2917 14.1318
ltoes -5.20322
2734
root 3.07833 19.2144 5.66001 -0.891482 9.00072 -8.71521
lowerback 3.63671 3.12302 -3.90903
upperback -0.114172 3.86065 -7.16611
thorax -1.91965 1.94261 -5.44845
lowerneck -9.55101 -4.71836 -10.5866
upperneck 6.91712 -5.70241 8.4418
head 4.17243 -2.67729 3.93765
rclavicle 2.66371e-014 -6.36111e-015
rhumerus 48.847 25.0688 -0.840294
rradius 79.1022
rwrist 43.5258
rhand -59.7088 385.556
rfingers 7.12502
rthumb -31.8746 -721.675
lclavicle 2.66371e-014 -6.36111e-015
lhumerus -30.0568 17.0796 59.1608
lradius 24.5339
lwrist 0.600964
lhand -27.1519 28.8653
lfingers 7.12502
lthumb -0.566827 58.8443
rfemur -6.26957 18.2753 13.4967
rtibia 15.5117
rfoot 2.51333 -40.8733
rtoes 15.8324
lfemur -1.93353 -15.7378 -11.589
ltibia 14.6582
lfoot -11.3781 13.9999
ltoes -5.34474
